<?xml version="1.0" encoding="UTF-8"?>
<svg version="1.1" xmlns="http://www.w3.org/2000/svg" width="1254" height="1254">
<path d="M0 0 C413.82 0 827.64 0 1254 0 C1254 413.82 1254 827.64 1254 1254 C840.18 1254 426.36 1254 0 1254 C0 840.18 0 426.36 0 0 Z " fill="#000000" transform="translate(0,0)"/>
<path d="M0 0 C69.63 0 139.26 0 211 0 C211.0928125 36.63 211.0928125 36.63 211.1875 74 C211.21481201 81.64414062 211.24212402 89.28828125 211.27026367 97.1640625 C211.28381348 106.66796875 211.28381348 106.66796875 211.28633118 111.14990234 C211.28906992 114.20856575 211.30007847 117.2670649 211.31672668 120.32568359 C211.63397885 181.41818952 200.67442073 240.2474264 178 297 C177.36192718 298.61977119 176.72390135 300.23956089 176.0859375 301.859375 C172.24025103 311.51565001 167.79606113 320.78312512 163 330 C162.64679687 330.68562012 162.29359375 331.37124023 161.9296875 332.07763672 C154.11955868 347.22380829 145.72209194 361.98977108 136 376 C135.55398438 376.64437012 135.10796875 377.28874023 134.6484375 377.95263672 C122.53447631 395.41504134 109.54466127 411.8092541 95.23046875 427.5234375 C93.97257252 428.92012088 92.72179869 430.32355187 91.49633789 431.7487793 C86.90335176 437.08339974 82.05168805 442.09857366 77.0625 447.0625 C76.30259766 447.82626953 75.54269531 448.59003906 74.75976562 449.37695312 C70.00327423 454.12532071 65.10976848 458.63584545 60 463 C58.97891196 463.88903046 57.9580599 464.77833206 56.9375 465.66796875 C37.78875788 482.09208932 16.92373917 496.52185097 -5 509 C-5.77827148 509.44520996 -6.55654297 509.89041992 -7.35839844 510.34912109 C-35.48597435 526.33782582 -64.98307934 538.8293102 -96 548 C-96.73879395 548.22139648 -97.47758789 548.44279297 -98.23876953 548.67089844 C-109.27593315 551.95671633 -120.37618407 554.44149633 -131.69238281 556.55908203 C-133.74502757 556.95128225 -135.79109635 557.3775529 -137.8359375 557.80859375 C-159.35053294 562.23537085 -181.22906043 563.50717555 -203.14697266 563.39111328 C-206.76372585 563.37493862 -210.37937244 563.39113884 -213.99609375 563.41015625 C-228.34363849 563.42230582 -242.27847936 562.48811101 -256.47032166 560.37535095 C-258.96054763 560.0058539 -261.45308137 559.66213471 -263.94799805 559.32592773 C-317.53055412 552.02267006 -370.10402702 530.85155075 -415 501 C-415.98419922 500.3493457 -415.98419922 500.3493457 -416.98828125 499.68554688 C-434.40266219 488.11480619 -450.35873454 474.84559148 -466 461 C-464.57968714 457.77112986 -462.86775194 455.62023441 -460.37638855 453.13587952 C-459.62359116 452.38033279 -458.87079376 451.62478607 -458.09518433 450.84634399 C-457.26866364 450.02701385 -456.44214294 449.20768372 -455.59057617 448.36352539 C-454.72049423 447.4931514 -453.85041229 446.6227774 -452.95396423 445.72602844 C-450.56897351 443.34219209 -448.17963028 440.96288154 -445.78825164 438.58546376 C-443.2832545 436.09298987 -440.78393951 433.5948314 -438.28401184 431.09727478 C-433.54475061 426.36423073 -428.80041721 421.63630499 -424.05423766 416.91019958 C-418.67135138 411.54959599 -413.29407447 406.18338098 -407.91729772 400.81665051 C-398.7197072 391.63643472 -389.51792124 382.46044601 -380.31140137 373.28918457 C-376.53746303 369.52957503 -372.76501922 365.76854195 -369 362 C-351 344 -333 326 -315 308 C-313.72593947 308.62763729 -312.452954 309.25745717 -311.18041992 309.88818359 C-310.11690559 310.41392471 -310.11690559 310.41392471 -309.03190613 310.95028687 C-306.34164088 312.34011818 -303.84399663 313.96558101 -301.3125 315.625 C-283.53463759 326.67944809 -263.55164442 335.1895126 -243.04980469 339.56201172 C-241.71176397 339.84791513 -240.37623144 340.14589894 -239.04394531 340.45751953 C-216.29412079 345.67500774 -188.67734914 345.36674426 -166 340 C-165.33468262 339.8448291 -164.66936523 339.6896582 -163.98388672 339.52978516 C-159.61153265 338.49247455 -155.306234 337.28789215 -151 336 C-150.06929687 335.73832031 -149.13859375 335.47664063 -148.1796875 335.20703125 C-111.25925386 324.00467745 -77.33707849 298.49269838 -54 268 C-53.56977539 267.44086914 -53.13955078 266.88173828 -52.69628906 266.30566406 C-45.76968201 257.25535634 -39.54230473 247.95817821 -34 238 C-33.5344873 237.1646875 -33.06897461 236.329375 -32.58935547 235.46875 C-9.11809066 192.91322983 -0.78089557 148.95560351 -0.59480286 100.83425903 C-0.58061775 97.62432219 -0.55604894 94.41446951 -0.5324707 91.20458984 C-0.46982543 81.88645597 -0.4233486 72.56821902 -0.375 63.25 C-0.25125 42.3775 -0.1275 21.505 0 0 Z " fill="#FCFCFC" transform="translate(814,498)"/>
<path d="M0 0 C0 68.31 0 136.62 0 207 C-47.025 207.495 -47.025 207.495 -95 208 C-116.31048734 210.36976198 -116.31048734 210.36976198 -137 215 C-137.68481445 215.19400391 -138.36962891 215.38800781 -139.07519531 215.58789062 C-164.55809196 222.98274318 -188.23096368 235.57728313 -209 252 C-210.26855835 253.00003052 -210.26855835 253.00003052 -211.56274414 254.02026367 C-218.43881391 259.54037947 -224.7862799 265.43543036 -231 271.6875 C-231.71950836 272.41024109 -231.71950836 272.41024109 -232.45355225 273.14758301 C-239.93300083 280.6808361 -246.90657557 288.30230208 -253 297 C-253.46486816 297.64759277 -253.92973633 298.29518555 -254.40869141 298.96240234 C-291.18385362 350.45729757 -305.06892266 414.74891252 -295 477 C-293.94721035 483.07613382 -292.57918092 489.04060922 -291 495 C-290.77940918 495.83869629 -290.55881836 496.67739258 -290.33154297 497.54150391 C-286.69571665 511.18272444 -282.53700272 524.48891526 -276.55078125 537.29296875 C-275.91910034 538.65119751 -275.91910034 538.65119751 -275.2746582 540.03686523 C-274.43878163 541.81604478 -273.5875195 543.58809433 -272.71948242 545.35180664 C-272.33767822 546.1586792 -271.95587402 546.96555176 -271.5625 547.796875 C-271.03849609 548.86953613 -271.03849609 548.86953613 -270.50390625 549.96386719 C-270 552 -270 552 -270.62897968 553.77312088 C-272.49754492 556.80813711 -274.91258076 559.17751598 -277.43241882 561.66619873 C-277.99271894 562.22750213 -278.55301905 562.78880553 -279.13029796 563.36711812 C-281.01012953 565.24790272 -282.89701778 567.12144398 -284.78393555 568.99511719 C-286.1328981 570.34187855 -287.48141324 571.68908819 -288.82951355 573.03671265 C-291.73495149 575.93921558 -294.64352057 578.83853117 -297.55454063 581.73543549 C-302.16134838 586.31997801 -306.76105881 590.91159695 -311.3598175 595.50421143 C-318.63977842 602.77278441 -325.92439315 610.03667272 -333.21104318 617.2985394 C-346.24483829 630.28807042 -359.27315681 643.28308833 -372.29617339 656.28342557 C-376.86442791 660.84329399 -381.43547626 665.4003375 -386.00882089 669.95510054 C-388.86123368 672.79682723 -391.71158143 675.64061868 -394.56143379 678.48491287 C-395.8782802 679.79830512 -397.1959967 681.11082568 -398.51467133 682.42238235 C-400.32302937 684.22119845 -402.1288168 686.02252677 -403.93266296 687.8258667 C-404.75502113 688.64715852 -404.75502113 688.64715852 -405.59399259 689.4850421 C-409.15350691 693.06877064 -412.50059153 696.76880579 -415.64796162 700.72505569 C-417 702 -417 702 -420 702 C-423.47788548 695.94296795 -426.94212013 689.87830431 -430.39697266 683.80810547 C-431.80165717 681.34744735 -433.21736532 678.89361479 -434.63671875 676.44140625 C-450.71337489 648.4218166 -462.47225451 617.80467872 -472 587 C-472.45584473 585.53095215 -472.45584473 585.53095215 -472.92089844 584.03222656 C-480.23682798 560.10125105 -484.54706785 535.69970405 -487.8125 510.9375 C-487.91782043 510.14107086 -488.02314087 509.34464172 -488.13165283 508.52407837 C-488.43390036 506.21341968 -488.72853103 503.90194384 -489.01953125 501.58984375 C-489.10466476 500.92933014 -489.18979828 500.26881653 -489.2775116 499.58828735 C-490.71771695 487.82554976 -491.16819898 476.04888862 -491.23828125 464.20703125 C-491.24318762 463.52964968 -491.24809399 462.8522681 -491.25314903 462.15435982 C-491.67576839 403.11605421 -491.67576839 403.11605421 -487 377 C-486.85481934 376.17753784 -486.70963867 375.35507568 -486.56005859 374.50769043 C-483.37079687 356.51220664 -479.99767242 338.59210767 -475 321 C-474.7019043 319.95021973 -474.40380859 318.90043945 -474.09667969 317.81884766 C-464.05950431 283.17565303 -450.28741707 249.1483973 -432 218 C-431.27731934 216.75452393 -431.27731934 216.75452393 -430.54003906 215.48388672 C-416.31937749 191.02564412 -399.80056138 168.15756392 -381 147 C-380.27039063 146.17113281 -379.54078125 145.34226562 -378.7890625 144.48828125 C-376.54948386 141.96979597 -374.27992727 139.48203591 -372 137 C-371.48131348 136.43087891 -370.96262695 135.86175781 -370.42822266 135.27539062 C-358.39963344 122.10365889 -345.84090307 109.34948258 -331.83984375 98.25390625 C-329.6787298 96.53868927 -327.55458298 94.79995567 -325.44140625 93.02734375 C-304.49092741 75.5404095 -281.11642526 60.72811333 -257 48 C-255.6687207 47.29641357 -255.6687207 47.29641357 -254.31054688 46.57861328 C-238.6091783 38.35085743 -222.53691707 31.37022024 -206 25 C-205.1951416 24.68836914 -204.3902832 24.37673828 -203.56103516 24.05566406 C-137.3321531 -1.28953353 -70.54826967 0 0 0 Z " fill="#FCFCFC" transform="translate(701,174)"/>
<path d="M0 0 C69.63 0 139.26 0 211 0 C211 68.31 211 136.62 211 207 C141.37 207 71.74 207 0 207 C0 138.69 0 70.38 0 0 Z " fill="#085EFD" transform="translate(814,174)"/>
<path d="M0 0 C0.99 0.495 0.99 0.495 2 1 C1.39056549 1.6072139 0.78113098 2.2144278 0.15322876 2.84004211 C-5.5879469 8.56118583 -11.32671762 14.28472863 -17.06279564 20.01098347 C-20.01189381 22.9548617 -22.96191558 25.89780189 -25.9140625 28.83862305 C-28.76267534 31.67637551 -31.60884289 34.51655935 -34.45332718 37.35844994 C-35.5393146 38.4425888 -36.62618221 39.5258467 -37.71393967 40.60820961 C-39.23659581 42.12361358 -40.75610055 43.64211138 -42.27490234 45.16137695 C-43.57396011 46.45710381 -43.57396011 46.45710381 -44.89926147 47.77900696 C-47.1303051 50.01262822 -47.1303051 50.01262822 -49 53 C-49.66 53 -50.32 53 -51 53 C-51 53.66 -51 54.32 -51 55 C-52.609375 56.55078125 -52.609375 56.55078125 -54.75 58.3125 C-57.91535204 60.99943328 -60.47506812 63.69146857 -63 67 C-65.80436007 70.01468708 -68.15757655 72.43456822 -72 74 C-70.70005304 71.13643903 -69.32621927 69.07773819 -67.10202026 66.86151123 C-66.51028015 66.26702179 -65.91854004 65.67253235 -65.30886841 65.06002808 C-64.66150726 64.41985748 -64.01414612 63.77968689 -63.34716797 63.12011719 C-62.66412598 62.43678314 -61.98108398 61.7534491 -61.27734375 61.04940796 C-59.02033362 58.79379024 -56.7563237 56.54533778 -54.4921875 54.296875 C-52.92519314 52.73361108 -51.35864001 51.16990477 -49.79251099 49.60577393 C-45.67051858 45.49141555 -41.54255516 41.3830988 -37.41333008 37.27600098 C-33.20032416 33.08345834 -28.99297842 28.88524412 -24.78515625 24.6875 C-16.5289751 16.45276472 -8.26647643 8.22439935 0 0 Z " fill="#F3F3F3" transform="translate(420,885)"/>
<path d="M0 0 C0.495 1.485 0.495 1.485 1 3 C0.35708008 3.57145752 -0.28583984 4.14291504 -0.94824219 4.73168945 C-11.06992832 13.8601179 -20.63902142 23.52749526 -30.25 33.1875 C-31.97762946 34.92015635 -33.70549232 36.65258001 -35.43359375 38.38476562 C-39.6250882 42.58716714 -43.81370109 46.79242316 -48 51 C-48.66 50.67 -49.32 50.34 -50 50 C-33.5 33.5 -17 17 0 0 Z " fill="#2C2C2D" transform="translate(370,788)"/>
<path d="M0 0 C0.66 0.33 1.32 0.66 2 1 C0.71520959 2.50589388 -0.57804082 4.00457375 -1.875 5.5 C-2.59429687 6.3353125 -3.31359375 7.170625 -4.0546875 8.03125 C-4.69664062 8.6809375 -5.33859375 9.330625 -6 10 C-6.66 10 -7.32 10 -8 10 C-8 10.66 -8 11.32 -8 12 C-9.609375 13.55078125 -9.609375 13.55078125 -11.75 15.3125 C-14.91535204 17.99943328 -17.47506812 20.69146857 -20 24 C-22.80436007 27.01468708 -25.15757655 29.43456822 -29 31 C-27.34763349 26.70932454 -24.1094793 23.8570447 -20.8984375 20.703125 C-20.30197418 20.10949158 -19.70551086 19.51585815 -19.0909729 18.90423584 C-17.1903019 17.01473373 -15.28278526 15.13231608 -13.375 13.25 C-12.08287532 11.96790935 -10.79120324 10.68536239 -9.5 9.40234375 C-6.33855521 6.26291568 -3.1709539 3.12982199 0 0 Z " fill="#EDECED" transform="translate(377,928)"/>
<path d="M0 0 C0.33 0.99 0.66 1.98 1 3 C-0.10794922 3.99966797 -0.10794922 3.99966797 -1.23828125 5.01953125 C-8.36771433 11.4854587 -15.25388721 18.13436946 -22 25 C-22.66 24.67 -23.32 24.34 -24 24 C-16.08 16.08 -8.16 8.16 0 0 Z " fill="#222323" transform="translate(370,788)"/>
<path d="M0 0 C0.66 0.99 1.32 1.98 2 3 C1.12293773 5.81583151 0.19701666 8.32817799 -1 11 C-1.7425 12.670625 -1.7425 12.670625 -2.5 14.375 C-4 17 -4 17 -7 19 C-4.94235079 12.54646385 -2.57616518 6.2638737 0 0 Z " fill="#232424" transform="translate(997,780)"/>
<path d="M0 0 C0 0.66 0 1.32 0 2 C-0.66 2 -1.32 2 -2 2 C-2.24492188 2.58265625 -2.48984375 3.1653125 -2.7421875 3.765625 C-4.20435874 6.36302236 -5.84740414 7.83975831 -8.125 9.75 C-9.21167969 10.67039062 -9.21167969 10.67039062 -10.3203125 11.609375 C-10.87460937 12.06828125 -11.42890625 12.5271875 -12 13 C-12.66 12.67 -13.32 12.34 -14 12 C-12.04761147 9.99387601 -10.08862178 7.99507567 -8.125 6 C-7.29162109 5.14148438 -7.29162109 5.14148438 -6.44140625 4.265625 C-2.2265625 0 -2.2265625 0 0 0 Z " fill="#E2E1E2" transform="translate(751,779)"/>
<path d="M0 0 C0.66 0.33 1.32 0.66 2 1 C0.78575607 2.49144105 -0.44706045 3.96777403 -1.6875 5.4375 C-2.37199219 6.26121094 -3.05648437 7.08492187 -3.76171875 7.93359375 C-6.24022612 10.22177944 -7.69136813 10.68130516 -11 11 C-7.33333333 7.33333333 -3.66666667 3.66666667 0 0 Z " fill="#1A1A1B" transform="translate(880,954)"/>
<path d="M0 0 C0.99 0.33 1.98 0.66 3 1 C-0.3 4.3 -3.6 7.6 -7 11 C-7.66 10.67 -8.32 10.34 -9 10 C-6.03 6.7 -3.06 3.4 0 0 Z " fill="#E8E7E8" transform="translate(459,845)"/>
<path d="M0 0 C0.33 0.66 0.66 1.32 1 2 C-0.109375 4.3125 -0.109375 4.3125 -1.75 7 C-2.28109375 7.886875 -2.8121875 8.77375 -3.359375 9.6875 C-5 12 -5 12 -8 14 C-6.6744419 10.37723685 -5.05653045 7.36494652 -2.875 4.1875 C-2.33617187 3.39730469 -1.79734375 2.60710937 -1.2421875 1.79296875 C-0.83226562 1.20128906 -0.42234375 0.60960937 0 0 Z " fill="#D4D4D5" transform="translate(286,365)"/>
<path d="M0 0 C0.66 1.32 1.32 2.64 2 4 C0.7260411 6.03833424 -0.61061923 8.03852126 -2 10 C-2.66 10 -3.32 10 -4 10 C-2.8905928 6.51329166 -1.73662334 3.22515763 0 0 Z " fill="#DCDBDC" transform="translate(789,719)"/>
<path d="M0 0 C0.33 0 0.66 0 1 0 C1.25 2.8125 1.25 2.8125 1 6 C-1 7.875 -1 7.875 -3 9 C-3.66 8.67 -4.32 8.34 -5 8 C-4.19185349 6.66402348 -3.37836819 5.331275 -2.5625 4 C-2.11003906 3.2575 -1.65757812 2.515 -1.19140625 1.75 C-0.79824219 1.1725 -0.40507813 0.595 0 0 Z " fill="#E0E0E1" transform="translate(779,738)"/>
<path d="M0 0 C0.66 0 1.32 0 2 0 C0.55746343 3.36591866 -1.33264727 5.51047079 -4 8 C-4.66 7.67 -5.32 7.34 -6 7 C-5.04882866 5.8274869 -4.08882991 4.66212985 -3.125 3.5 C-2.59132813 2.8503125 -2.05765625 2.200625 -1.5078125 1.53125 C-0.76144531 0.77328125 -0.76144531 0.77328125 0 0 Z " fill="#DBDADC" transform="translate(761,765)"/>
<path d="M0 0 C0.66 0.33 1.32 0.66 2 1 C1.26418258 2.1549921 0.51069961 3.29874185 -0.25 4.4375 C-0.66765625 5.07558594 -1.0853125 5.71367187 -1.515625 6.37109375 C-3.27248877 8.29902057 -4.46089803 8.61479436 -7 9 C-6.02180976 7.68677212 -5.0424189 6.37443848 -4.0625 5.0625 C-3.51722656 4.33160156 -2.97195313 3.60070312 -2.41015625 2.84765625 C-1 1 -1 1 0 0 Z " fill="#E4E3E4" transform="translate(320,321)"/>
<path d="M0 0 C0.99 0.33 1.98 0.66 3 1 C-0.12621626 4.39417765 -2.56541027 6.6062718 -7 8 C-6.02133662 6.85373678 -5.04205413 5.70800212 -4.0625 4.5625 C-3.51722656 3.92441406 -2.97195313 3.28632813 -2.41015625 2.62890625 C-1.63204305 1.73008851 -0.84063472 0.84063472 0 0 Z " fill="#F1F1F1" transform="translate(335,305)"/>
<path d="M0 0 C0.33 0.99 0.66 1.98 1 3 C-1.31 4.98 -3.62 6.96 -6 9 C-6.66 8.67 -7.32 8.34 -8 8 C-5.36 5.36 -2.72 2.72 0 0 Z " fill="#181819" transform="translate(370,788)"/>
<path d="M0 0 C0.99 0.33 1.98 0.66 3 1 C1.35 2.65 -0.3 4.3 -2 6 C-2.66 5.67 -3.32 5.34 -4 5 C-4 4.34 -4 3.68 -4 3 C-3.34 3 -2.68 3 -2 3 C-2 2.34 -2 1.68 -2 1 C-1.34 0.67 -0.68 0.34 0 0 Z " fill="#E8E8E8" transform="translate(880,951)"/>
<path d="M0 0 C0.99 0.33 1.98 0.66 3 1 C1.35 2.98 -0.3 4.96 -2 7 C-2.99 6.67 -3.98 6.34 -5 6 C-3.35 4.02 -1.7 2.04 0 0 Z " fill="#E0E0E0" transform="translate(310,333)"/>
<path d="M0 0 C0.99 0.33 1.98 0.66 3 1 C0.525 4.465 0.525 4.465 -2 8 C-3 4 -3 4 -2 2 C-1.34 2 -0.68 2 0 2 C0 1.34 0 0.68 0 0 Z " fill="#131313" transform="translate(324,312)"/>
<path d="M0 0 C0.66 0.33 1.32 0.66 2 1 C1.04882866 2.1725131 0.08882991 3.33787015 -0.875 4.5 C-1.40867187 5.1496875 -1.94234375 5.799375 -2.4921875 6.46875 C-2.98976563 6.9740625 -3.48734375 7.479375 -4 8 C-4.66 8 -5.32 8 -6 8 C-4.55746343 4.63408134 -2.66735273 2.48952921 0 0 Z " fill="#DBDBDB" transform="translate(354,951)"/>
<path d="M0 0 C0.66 0.33 1.32 0.66 2 1 C0.02 3.31 -1.96 5.62 -4 8 C-4.66 7.34 -5.32 6.68 -6 6 C-4.02 4.02 -2.04 2.04 0 0 Z " fill="#E5E5E5" transform="translate(361,944)"/>
</svg>
